<svg xmlns="http://www.w3.org/2000/svg" width="1400" height="820" viewBox="0 0 1400 820" role="img" aria-labelledby="t d">
<title id="t">OeMAG-Marktpreis Photovoltaik und Marktwert Solar, Jänner 2024 bis August 2026</title>
<desc id="d">Monatswerte des OeMAG-Marktpreises für Photovoltaik und des Referenzmarktwerts PV der E-Control in ct/kWh von Jänner 2024 bis August 2026, mit dem Korridor 60 bis 100 Prozent des Quartalsmarktpreises. Zusammenstellung Ökovolt.</desc>
<rect width="1400" height="820" fill="#ffffff"/>
<text x="60" y="62" font-family="Inter, 'Segoe UI', Arial, sans-serif" font-size="32" font-weight="800" fill="#151a24" text-anchor="start">Die Untergrenze schützt Einspeiser im Sommer</text>
<text x="60" y="96" font-family="Inter, 'Segoe UI', Arial, sans-serif" font-size="18" font-weight="400" fill="#6b7486" text-anchor="start">OeMAG-Marktpreis Photovoltaik vs. Marktwert Solar, ct/kWh netto, Jänner 2024 bis August 2026</text>
<g transform="translate(60,112)">
  <rect x="0" y="0" width="26" height="14" rx="3" fill="#eef3e6" stroke="#c9dab0"/><text x="34" y="12" font-family="Inter, 'Segoe UI', Arial, sans-serif" font-size="14.5" font-weight="400" fill="#394050" text-anchor="start">Korridor 60–100 % des Quartalspreises (ab 2026 minus Ausgleichsenergie)</text>
  <line x1="560" x2="590" y1="7" y2="7" stroke="#558227" stroke-width="3"/><text x="598" y="12" font-family="Inter, 'Segoe UI', Arial, sans-serif" font-size="14.5" font-weight="400" fill="#394050" text-anchor="start">OeMAG-Marktpreis PV</text>
  <line x1="770" x2="800" y1="7" y2="7" stroke="#1f5aa1" stroke-width="2.5" stroke-dasharray="6 4"/><text x="808" y="12" font-family="Inter, 'Segoe UI', Arial, sans-serif" font-size="14.5" font-weight="400" fill="#394050" text-anchor="start">Marktwert Solar (Referenzmarktwert PV)</text>
</g>
<line x1="90" x2="1230" y1="650" y2="650" stroke="#dfe3ea" stroke-width="1"/><text x="78" y="655" font-family="Inter, 'Segoe UI', Arial, sans-serif" font-size="15" font-weight="400" fill="#6b7486" text-anchor="end">0</text><line x1="90" x2="1230" y1="525" y2="525" stroke="#dfe3ea" stroke-width="1"/><text x="78" y="530" font-family="Inter, 'Segoe UI', Arial, sans-serif" font-size="15" font-weight="400" fill="#6b7486" text-anchor="end">4</text><line x1="90" x2="1230" y1="400" y2="400" stroke="#dfe3ea" stroke-width="1"/><text x="78" y="405" font-family="Inter, 'Segoe UI', Arial, sans-serif" font-size="15" font-weight="400" fill="#6b7486" text-anchor="end">8</text><line x1="90" x2="1230" y1="275" y2="275" stroke="#dfe3ea" stroke-width="1"/><text x="78" y="280" font-family="Inter, 'Segoe UI', Arial, sans-serif" font-size="15" font-weight="400" fill="#6b7486" text-anchor="end">12</text><line x1="90" x2="1230" y1="150" y2="150" stroke="#dfe3ea" stroke-width="1"/><text x="78" y="155" font-family="Inter, 'Segoe UI', Arial, sans-serif" font-size="15" font-weight="400" fill="#6b7486" text-anchor="end">16</text>
<path d="M90.0,349.2 125.6,349.2 L125.6,349.2 161.3,349.2 L161.3,349.2 196.9,349.2 L196.9,407.6 232.5,407.6 L232.5,407.6 268.1,407.6 L268.1,407.6 303.8,407.6 L303.8,371.9 339.4,371.9 L339.4,371.9 375.0,371.9 L375.0,371.9 410.6,371.9 L410.6,378.1 446.3,378.1 L446.3,378.1 481.9,378.1 L481.9,378.1 517.5,378.1 L517.5,345.9 553.1,345.9 L553.1,345.9 588.8,345.9 L588.8,345.9 624.4,345.9 L624.4,345.0 660.0,345.0 L660.0,345.0 695.6,345.0 L695.6,345.0 731.3,345.0 L731.3,343.1 766.9,343.1 L766.9,343.1 802.5,343.1 L802.5,343.1 838.1,343.1 L838.1,363.5 873.8,363.5 L873.8,363.5 909.4,363.5 L909.4,363.5 945.0,363.5 L945.0,373.7 980.6,373.7 L980.6,373.7 1016.3,373.7 L1016.3,373.7 1051.9,373.7 L1051.9,288.8 1087.5,288.8 L1087.5,288.8 1123.1,288.8 L1123.1,288.8 1158.8,288.8 L1158.8,321.4 1194.4,321.4 L1194.4,321.4 1230.0,321.4 L1230.0,457.9 1194.4,457.9 L1194.4,457.9 1158.8,457.9 L1158.8,438.4 1123.1,438.4 L1123.1,438.4 1087.5,438.4 L1087.5,438.4 1051.9,438.4 L1051.9,489.3 1016.3,489.3 L1016.3,489.3 980.6,489.3 L980.6,489.3 945.0,489.3 L945.0,478.1 909.4,478.1 L909.4,478.1 873.8,478.1 L873.8,478.1 838.1,478.1 L838.1,465.9 802.5,465.9 L802.5,465.9 766.9,465.9 L766.9,465.9 731.3,465.9 L731.3,467.0 695.6,467.0 L695.6,467.0 660.0,467.0 L660.0,467.0 624.4,467.0 L624.4,467.6 588.8,467.6 L588.8,467.6 553.1,467.6 L553.1,467.6 517.5,467.6 L517.5,486.9 481.9,486.9 L481.9,486.9 446.3,486.9 L446.3,486.9 410.6,486.9 L410.6,483.1 375.0,483.1 L375.0,483.1 339.4,483.1 L339.4,483.1 303.8,483.1 L303.8,504.5 268.1,504.5 L268.1,504.5 232.5,504.5 L232.5,504.5 196.9,504.5 L196.9,469.5 161.3,469.5 L161.3,469.5 125.6,469.5 L125.6,469.5 90.0,469.5 Z" fill="#eef3e6" stroke="none"/>
<path d="M90.0,399.1 L125.6,399.1 L125.6,456.9 L161.3,456.9 L161.3,505.6 L196.9,505.6 L196.9,552.5 L232.5,552.5 L232.5,545.6 L268.1,545.6 L268.1,517.5 L303.8,517.5 L303.8,516.6 L339.4,516.6 L339.4,470.3 L375.0,470.3 L375.0,466.9 L410.6,466.9 L410.6,456.6 L446.3,456.6 L446.3,272.5 L481.9,272.5 L481.9,233.8 L517.5,233.8 L517.5,239.1 L553.1,239.1 L553.1,258.8 L588.8,258.8 L588.8,449.7 L624.4,449.7 L624.4,567.8 L660.0,567.8 L660.0,603.4 L695.6,603.4 L695.6,599.7 L731.3,599.7 L731.3,465.3 L766.9,465.3 L766.9,549.7 L802.5,549.7 L802.5,498.8 L838.1,498.8 L838.1,373.4 L873.8,373.4 L873.8,330.0 L909.4,330.0 L909.4,298.1 L945.0,298.1 L945.0,214.1 L980.6,214.1 L980.6,395.0 L1016.3,395.0 L1016.3,464.4 L1051.9,464.4 L1051.9,596.9 L1087.5,596.9 L1087.5,532.5 L1123.1,532.5 L1123.1,476.6 L1158.8,476.6 L1158.8,435.9 L1194.4,435.9 L1194.4,355.6 L1230.0,355.6" fill="none" stroke="#1f5aa1" stroke-width="2.5" stroke-dasharray="6 4" stroke-linejoin="round"/>
<path d="M90.0,395.7 L125.6,395.7 L125.6,453.3 L161.3,453.3 L161.3,469.5 L196.9,469.5 L196.9,504.5 L232.5,504.5 L232.5,504.5 L268.1,504.5 L268.1,504.5 L303.8,504.5 L303.8,483.2 L339.4,483.2 L339.4,467.9 L375.0,467.9 L375.0,461.3 L410.6,461.3 L410.6,435.4 L446.3,435.4 L446.3,378.1 L481.9,378.1 L481.9,378.1 L517.5,378.1 L517.5,345.9 L553.1,345.9 L553.1,345.9 L588.8,345.9 L588.8,462.3 L624.4,462.3 L624.4,467.0 L660.0,467.0 L660.0,467.0 L695.6,467.0 L695.6,467.0 L731.3,467.0 L731.3,463.6 L766.9,463.6 L766.9,465.9 L802.5,465.9 L802.5,465.9 L838.1,465.9 L838.1,368.5 L873.8,368.5 L873.8,363.5 L909.4,363.5 L909.4,363.5 L945.0,363.5 L945.0,373.7 L980.6,373.7 L980.6,385.7 L1016.3,385.7 L1016.3,471.3 L1051.9,471.3 L1051.9,438.4 L1087.5,438.4 L1087.5,438.4 L1123.1,438.4 L1123.1,438.4 L1158.8,438.4 L1158.8,457.9 L1194.4,457.9 L1194.4,368.8 L1230.0,368.8" fill="none" stroke="#558227" stroke-width="3" stroke-linejoin="round"/>
<line x1="90" x2="1230" y1="650" y2="650" stroke="#6b7486" stroke-width="1"/>
<line x1="90" x2="90" y1="650" y2="660" stroke="#6b7486" stroke-width="1"/><text x="96" y="680" font-family="Inter, 'Segoe UI', Arial, sans-serif" font-size="16" font-weight="600" fill="#394050" text-anchor="start">2024</text><line x1="517.5" x2="517.5" y1="650" y2="660" stroke="#6b7486" stroke-width="1"/><text x="523.5" y="680" font-family="Inter, 'Segoe UI', Arial, sans-serif" font-size="16" font-weight="600" fill="#394050" text-anchor="start">2025</text><line x1="945" x2="945" y1="650" y2="660" stroke="#6b7486" stroke-width="1"/><text x="951" y="680" font-family="Inter, 'Segoe UI', Arial, sans-serif" font-size="16" font-weight="600" fill="#394050" text-anchor="start">2026</text>
<text x="1240" y="373.84375" font-family="Inter, 'Segoe UI', Arial, sans-serif" font-size="15" font-weight="700" fill="#151a24" text-anchor="start">8,997 ct</text>
<text x="1240" y="349.625" font-family="Inter, 'Segoe UI', Arial, sans-serif" font-size="15" font-weight="400" fill="#394050" text-anchor="start">9,42 ct</text>
<text x="90" y="712" font-family="Inter, 'Segoe UI', Arial, sans-serif" font-size="15" font-weight="400" fill="#394050" text-anchor="start">Q4/2026: Quartalspreis 15,282 ct/kWh (E-Control, 29.09.2026) → Korridor PV 8,761–14,874 ct/kWh ab Oktober 2026.</text>
<text x="60" y="768" font-family="Inter, 'Segoe UI', Arial, sans-serif" font-size="14" font-weight="400" fill="#6b7486" text-anchor="start">Quellen: OeMAG Marktpreise 2024 und 2025 (PDF), oem-ag.at/marktpreis (2026); E-Control Marktpreis-Archiv und Referenzmarktwert nach § 13 EAG. Geprüft am 30.09.2026.</text>
<text x="60" y="792" font-family="Inter, 'Segoe UI', Arial, sans-serif" font-size="14" font-weight="400" fill="#6b7486" text-anchor="start">Grafik: Ökovolt (oekovolt.com/einspeisung-gewerbe) · Zusammenstellung CC BY 4.0 · Monatswerte sind amtliche Veröffentlichungen von OeMAG und E-Control</text>
</svg>